<svg aria-hidden="true" style="position: absolute; width: 0; height: 0; overflow: hidden;" version="1.1" xmlns="http://www.w3.org/2000/svg" xmlns:xlink="http://www.w3.org/1999/xlink">
<defs>
<symbol id="icon-icon_close" viewBox="0 0 32 32">
<path d="M31.45 0c-0.139 0.004-0.269 0.061-0.366 0.16l-12.775 12.779c-0.523 0.501 0.251 1.277 0.753 0.754l12.774-12.779c0.347-0.339 0.107-0.914-0.387-0.914zM13.321 18.133c-0.139 0.004-0.267 0.062-0.363 0.16l-12.785 12.789c-0.518 0.498 0.249 1.265 0.747 0.747l12.785-12.789c0.347-0.334 0.099-0.907-0.384-0.907zM0.533 0c-0 0-0.001 0-0.001 0-0.295 0-0.533 0.239-0.533 0.533 0 0.151 0.063 0.287 0.163 0.384l30.921 30.918c0.098 0.109 0.24 0.178 0.398 0.178 0.295 0 0.533-0.239 0.533-0.533 0-0.158-0.069-0.3-0.177-0.397l-0-0-30.918-30.919c-0.097-0.1-0.233-0.162-0.383-0.162-0 0-0.001 0-0.001 0h0z"></path>
</symbol>
<symbol id="icon-cancel-circle" viewBox="0 0 32 32">
<path d="M16 0c-8.837 0-16 7.163-16 16s7.163 16 16 16 16-7.163 16-16-7.163-16-16-16zM16 29c-7.18 0-13-5.82-13-13s5.82-13 13-13 13 5.82 13 13-5.82 13-13 13z"></path>
<path d="M21 8l-5 5-5-5-3 3 5 5-5 5 3 3 5-5 5 5 3-3-5-5 5-5z"></path>
</symbol>
</defs>
</svg>
